<svg width="25" height="30" viewBox="0 0 25 30" fill="none" xmlns="http://www.w3.org/2000/svg">
<path d="M24.2181 10.2326C24.0816 10.3162 20.8341 12.0797 20.8341 15.9897C20.9871 20.4489 24.9323 22.0127 25 22.0127C24.9323 22.0963 24.4044 24.143 22.8405 26.2885C21.5994 28.1367 20.2218 30 18.13 30C16.1402 30 15.4259 28.7683 13.13 28.7683C10.6643 28.7683 9.96669 30 8.07893 30C5.98709 30 4.50749 28.0368 3.1987 26.206C1.49839 23.8099 0.0531747 20.0496 0.00215418 16.439C-0.0322292 14.5258 0.34266 12.6451 1.2943 11.0476C2.63748 8.81747 5.03544 7.30357 7.65413 7.25365C9.66056 7.18746 11.4463 8.60151 12.6708 8.60151C13.8442 8.60151 16.0381 7.25365 18.5204 7.25365C19.5918 7.25474 22.449 7.57054 24.2181 10.2326ZM12.5011 6.87165C12.1439 5.12444 13.13 3.37722 14.0483 2.2627C15.2218 0.914846 17.0752 0 18.6735 0C18.7755 1.74721 18.1289 3.46079 16.9731 4.7088C15.9361 6.05665 14.1504 7.07134 12.5011 6.87165Z" fill="black"/>
</svg>
