<svg width="42" height="35" viewBox="0 0 42 35" fill="none" xmlns="http://www.w3.org/2000/svg">
<path d="M36.0153 2.66667C36.0153 4.13943 37.2092 5.33334 38.682 5.33334C40.1548 5.33334 41.3487 4.13943 41.3487 2.66667C41.3487 1.19391 40.1548 5.08626e-06 38.682 5.08626e-06C37.2092 5.08626e-06 36.0153 1.19391 36.0153 2.66667ZM3.32845 34.0202C3.52372 34.2155 3.8403 34.2155 4.03556 34.0202L7.21754 30.8382C7.4128 30.643 7.4128 30.3264 7.21754 30.1311C7.02228 29.9359 6.7057 29.9359 6.51043 30.1311L3.68201 32.9596L0.85358 30.1311C0.658318 29.9359 0.341735 29.9359 0.146473 30.1311C-0.0487892 30.3264 -0.0487892 30.643 0.146473 30.8382L3.32845 34.0202ZM3.68201 27.7108H3.18201V33.6667H3.68201H4.18201V27.7108H3.68201ZM38.682 2.66667H38.182V7.71079H38.682H39.182V2.66667H38.682ZM28.682 17.7108V17.2108H13.682V17.7108V18.2108H28.682V17.7108ZM38.682 7.71079H38.182C38.182 12.9575 33.9287 17.2108 28.682 17.2108V17.7108V18.2108C34.481 18.2108 39.182 13.5098 39.182 7.71079H38.682ZM3.68201 27.7108H4.18201C4.18201 22.4641 8.4353 18.2108 13.682 18.2108V17.7108V17.2108C7.88302 17.2108 3.18201 21.9118 3.18201 27.7108H3.68201Z" fill="#FFF039"/>
</svg>
