<svg width="8" height="35" viewBox="0 0 8 35" fill="none" xmlns="http://www.w3.org/2000/svg">
<path d="M1.01534 2.66667C1.01534 4.13943 2.20925 5.33334 3.68201 5.33334C5.15477 5.33334 6.34867 4.13943 6.34867 2.66667C6.34867 1.19391 5.15477 5.00679e-06 3.68201 5.00679e-06C2.20925 5.00679e-06 1.01534 1.19391 1.01534 2.66667ZM3.32845 34.0202C3.52372 34.2155 3.8403 34.2155 4.03556 34.0202L7.21754 30.8382C7.4128 30.643 7.4128 30.3264 7.21754 30.1311C7.02228 29.9359 6.7057 29.9359 6.51043 30.1311L3.68201 32.9596L0.85358 30.1311C0.658318 29.9359 0.341735 29.9359 0.146473 30.1311C-0.0487893 30.3264 -0.0487893 30.643 0.146473 30.8382L3.32845 34.0202ZM3.68201 2.66667H3.18201V33.6667H3.68201H4.18201V2.66667H3.68201Z" fill="#FFF039"/>
</svg>
