<svg width="69" height="51" viewBox="0 0 69 51" fill="none" xmlns="http://www.w3.org/2000/svg">
<path d="M65.1226 50.8621C64.9226 51.0525 64.6061 51.0448 64.4157 50.8448L61.3124 47.586C61.122 47.386 61.1297 47.0696 61.3297 46.8791C61.5297 46.6887 61.8462 46.6964 62.0366 46.8964L64.7951 49.7931L67.6918 47.0346C67.8917 46.8442 68.2082 46.8519 68.3987 47.0519C68.5891 47.2519 68.5814 47.5684 68.3814 47.7588L65.1226 50.8621ZM65.7496 10.7444L66.2494 10.7566L65.2776 50.5122L64.7778 50.5L64.2779 50.4878L65.2497 10.7322L65.7496 10.7444ZM0 0.5V0H55.7526V0.5V1H0V0.5ZM65.7496 10.7444L65.2497 10.7322C65.3802 5.39614 61.0902 1 55.7526 1V0.5V0C61.652 0 66.3936 4.85889 66.2494 10.7566L65.7496 10.7444Z" fill="#FFF039"/>
</svg>
