<svg width="106" height="55" viewBox="0 0 106 55" fill="none" xmlns="http://www.w3.org/2000/svg">
<path d="M100.015 2.66667C100.015 4.13943 101.209 5.33334 102.682 5.33334C104.155 5.33334 105.349 4.13943 105.349 2.66667C105.349 1.19391 104.155 5.00679e-06 102.682 5.00679e-06C101.209 5.00679e-06 100.015 1.19391 100.015 2.66667ZM3.32845 54.0202C3.52372 54.2155 3.8403 54.2155 4.03556 54.0202L7.21754 50.8382C7.4128 50.643 7.4128 50.3264 7.21754 50.1311C7.02228 49.9359 6.7057 49.9359 6.51043 50.1311L3.68201 52.9596L0.85358 50.1311C0.658318 49.9359 0.341735 49.9359 0.146473 50.1311C-0.0487893 50.3264 -0.0487893 50.643 0.146473 50.8382L3.32845 54.0202ZM3.68201 37.4167H3.18201V53.6667H3.68201H4.18201V37.4167H3.68201ZM102.682 2.66667H102.182V17.4167H102.682H103.182V2.66667H102.682ZM92.682 27.4167V26.9167H13.682V27.4167V27.9167H92.682V27.4167ZM102.682 17.4167H102.182C102.182 22.6634 97.9287 26.9167 92.682 26.9167V27.4167V27.9167C98.481 27.9167 103.182 23.2157 103.182 17.4167H102.682ZM3.68201 37.4167H4.18201C4.18201 32.17 8.4353 27.9167 13.682 27.9167V27.4167V26.9167C7.88302 26.9167 3.18201 31.6177 3.18201 37.4167H3.68201Z" fill="#FFF039"/>
</svg>
