<svg width="42" height="35" viewBox="0 0 42 35" fill="none" xmlns="http://www.w3.org/2000/svg">
<path d="M38.0202 34.0202C37.8249 34.2155 37.5083 34.2155 37.3131 34.0202L34.1311 30.8382C33.9358 30.643 33.9358 30.3264 34.1311 30.1311C34.3264 29.9359 34.6429 29.9359 34.8382 30.1311L37.6666 32.9596L40.4951 30.1311C40.6903 29.9359 41.0069 29.9359 41.2022 30.1311C41.3974 30.3264 41.3974 30.643 41.2022 30.8382L38.0202 34.0202ZM5.33329 2.66667C5.33329 4.13943 4.13939 5.33334 2.66663 5.33334C1.19387 5.33334 -4.19617e-05 4.13943 -4.19617e-05 2.66667C-4.19617e-05 1.19391 1.19387 5.00679e-06 2.66663 5.00679e-06C4.13939 5.00679e-06 5.33329 1.19391 5.33329 2.66667ZM37.6666 27.7108H38.1666V33.6667H37.6666H37.1666V27.7108H37.6666ZM2.66663 2.66667H3.16663V7.71079H2.66663H2.16663V2.66667H2.66663ZM12.6666 17.7108V17.2108H27.6666V17.7108V18.2108H12.6666V17.7108ZM2.66663 7.71079H3.16663C3.16663 12.9575 7.41992 17.2108 12.6666 17.2108V17.7108V18.2108C6.86764 18.2108 2.16663 13.5098 2.16663 7.71079H2.66663ZM37.6666 27.7108H37.1666C37.1666 22.4641 32.9133 18.2108 27.6666 18.2108V17.7108V17.2108C33.4656 17.2108 38.1666 21.9118 38.1666 27.7108H37.6666Z" fill="#FFF039"/>
</svg>
