<svg width="45" height="46" viewBox="0 0 45 46" fill="none" xmlns="http://www.w3.org/2000/svg">
<path d="M30.7256 24.3189L28.683 25.7884C25.5104 28.0639 24.2543 32.2878 25.5936 36.1776L26.4534 38.6857C26.783 39.6367 25.5651 40.254 24.993 39.4258L23.4788 37.2494C21.1336 33.8693 16.9846 32.3847 13.2736 33.5979L10.8806 34.3762C9.9735 34.6751 9.32159 33.3888 10.099 32.8339L12.1417 31.3644C15.3143 29.0889 16.5703 24.865 15.2311 20.9752L14.3713 18.4671C14.0416 17.5161 15.2596 16.8989 15.8316 17.727L17.3459 19.9034C19.691 23.2835 23.8401 24.7681 27.5511 23.555L29.944 22.7766C30.8512 22.4777 31.5031 23.764 30.7256 24.3189Z" fill="#4D5EF6"/>
<path d="M30.9969 5.51932L30.0757 6.18206C28.6449 7.20825 28.0784 9.11313 28.6824 10.8674L29.0702 11.9985C29.2188 12.4274 28.6696 12.7057 28.4116 12.3323L27.7287 11.3507C26.6711 9.82638 24.7999 9.15686 23.1263 9.70396L22.0472 10.055C21.6381 10.1898 21.3441 9.60967 21.6947 9.35944L22.6159 8.6967C24.0467 7.67051 24.6131 5.76563 24.0091 4.01137L23.6214 2.88027C23.4727 2.4514 24.022 2.17303 24.28 2.5465L24.9629 3.52803C26.0205 5.05239 27.8916 5.72191 29.5652 5.17481L30.6444 4.82377C31.0535 4.68899 31.3475 5.26909 30.9969 5.51932Z" fill="#4D5EF6"/>
</svg>
