<svg width="11" height="112" viewBox="0 0 11 112" fill="none" xmlns="http://www.w3.org/2000/svg">
<path d="M-8.15392e-05 5.33333C-8.15392e-05 8.27885 2.38773 10.6667 5.33325 10.6667C8.27877 10.6667 10.6666 8.27885 10.6666 5.33333C10.6666 2.38781 8.27877 -5.24521e-06 5.33325 -5.24521e-06C2.38773 -5.24521e-06 -8.15392e-05 2.38781 -8.15392e-05 5.33333ZM-8.15392e-05 106.333C-8.15392e-05 109.279 2.38773 111.667 5.33325 111.667C8.27877 111.667 10.6666 109.279 10.6666 106.333C10.6666 103.388 8.27877 101 5.33325 101C2.38773 101 -8.15392e-05 103.388 -8.15392e-05 106.333ZM4.33325 8.48958C4.33325 9.04186 4.78097 9.48958 5.33325 9.48958C5.88554 9.48958 6.33325 9.04186 6.33325 8.48958H5.33325H4.33325ZM6.33325 14.8021C6.33325 14.2498 5.88554 13.8021 5.33325 13.8021C4.78097 13.8021 4.33325 14.2498 4.33325 14.8021H5.33325H6.33325ZM4.33325 21.1146C4.33325 21.6669 4.78097 22.1146 5.33325 22.1146C5.88554 22.1146 6.33325 21.6669 6.33325 21.1146H5.33325H4.33325ZM6.33325 27.4271C6.33325 26.8748 5.88554 26.4271 5.33325 26.4271C4.78097 26.4271 4.33325 26.8748 4.33325 27.4271H5.33325H6.33325ZM4.33325 33.7396C4.33325 34.2919 4.78097 34.7396 5.33325 34.7396C5.88554 34.7396 6.33325 34.2919 6.33325 33.7396H5.33325H4.33325ZM6.33325 40.0521C6.33325 39.4998 5.88554 39.0521 5.33325 39.0521C4.78097 39.0521 4.33325 39.4998 4.33325 40.0521H5.33325H6.33325ZM4.33325 46.3646C4.33325 46.9169 4.78097 47.3646 5.33325 47.3646C5.88554 47.3646 6.33325 46.9169 6.33325 46.3646H5.33325H4.33325ZM6.33325 52.6771C6.33325 52.1248 5.88554 51.6771 5.33325 51.6771C4.78097 51.6771 4.33325 52.1248 4.33325 52.6771H5.33325H6.33325ZM4.33325 58.9896C4.33325 59.5419 4.78097 59.9896 5.33325 59.9896C5.88554 59.9896 6.33325 59.5419 6.33325 58.9896H5.33325H4.33325ZM6.33325 65.3021C6.33325 64.7498 5.88554 64.3021 5.33325 64.3021C4.78097 64.3021 4.33325 64.7498 4.33325 65.3021H5.33325H6.33325ZM4.33325 71.6146C4.33325 72.1669 4.78097 72.6146 5.33325 72.6146C5.88554 72.6146 6.33325 72.1669 6.33325 71.6146H5.33325H4.33325ZM6.33325 77.9271C6.33325 77.3748 5.88554 76.9271 5.33325 76.9271C4.78097 76.9271 4.33325 77.3748 4.33325 77.9271H5.33325H6.33325ZM4.33325 84.2396C4.33325 84.7919 4.78097 85.2396 5.33325 85.2396C5.88554 85.2396 6.33325 84.7919 6.33325 84.2396H5.33325H4.33325ZM6.33325 90.5521C6.33325 89.9998 5.88554 89.5521 5.33325 89.5521C4.78097 89.5521 4.33325 89.9998 4.33325 90.5521H5.33325H6.33325ZM4.33325 96.8646C4.33325 97.4169 4.78097 97.8646 5.33325 97.8646C5.88554 97.8646 6.33325 97.4169 6.33325 96.8646H5.33325H4.33325ZM6.33325 103.177C6.33325 102.625 5.88554 102.177 5.33325 102.177C4.78097 102.177 4.33325 102.625 4.33325 103.177H5.33325H6.33325ZM5.33325 5.33333H4.33325V8.48958H5.33325H6.33325V5.33333H5.33325ZM5.33325 14.8021H4.33325V21.1146H5.33325H6.33325V14.8021H5.33325ZM5.33325 27.4271H4.33325V33.7396H5.33325H6.33325V27.4271H5.33325ZM5.33325 40.0521H4.33325V46.3646H5.33325H6.33325V40.0521H5.33325ZM5.33325 52.6771H4.33325V58.9896H5.33325H6.33325V52.6771H5.33325ZM5.33325 65.3021H4.33325V71.6146H5.33325H6.33325V65.3021H5.33325ZM5.33325 77.9271H4.33325V84.2396H5.33325H6.33325V77.9271H5.33325ZM5.33325 90.5521H4.33325V96.8646H5.33325H6.33325V90.5521H5.33325ZM5.33325 103.177H4.33325V106.333H5.33325H6.33325V103.177H5.33325Z" fill="#FFF039"/>
</svg>
