<svg width="84" height="46" viewBox="0 0 84 46" fill="none" xmlns="http://www.w3.org/2000/svg">
<path d="M5.33325 46C2.38773 46 -8.39233e-05 43.6122 -8.39233e-05 40.6667C-8.39233e-05 37.7212 2.38773 35.3333 5.33325 35.3333C8.27877 35.3333 10.6666 37.7212 10.6666 40.6667C10.6666 43.6122 8.27877 46 5.33325 46ZM78.3333 10.6667C75.3877 10.6667 72.9999 8.27886 72.9999 5.33334C72.9999 2.38783 75.3877 1.14441e-05 78.3333 1.14441e-05C81.2788 1.14441e-05 83.6666 2.38783 83.6666 5.33334C83.6666 8.27886 81.2788 10.6667 78.3333 10.6667ZM8.48782 39.6954C9.04008 39.7005 9.48369 40.1523 9.47865 40.7045C9.4736 41.2568 9.02181 41.7004 8.46955 41.6954L8.47868 40.6954L8.48782 39.6954ZM14.7604 41.7528C14.2082 41.7478 13.7645 41.296 13.7696 40.7437C13.7746 40.1915 14.2264 39.7479 14.7787 39.7529L14.7696 40.7529L14.7604 41.7528ZM21.0696 39.8103C21.6218 39.8154 22.0654 40.2672 22.0604 40.8194C22.0553 41.3717 21.6036 41.8153 21.0513 41.8103L21.0604 40.8103L21.0696 39.8103ZM27.3422 41.8677C26.7899 41.8627 26.3463 41.4109 26.3513 40.8586C26.3564 40.3064 26.8082 39.8628 27.3604 39.8678L27.3513 40.8678L27.3422 41.8677ZM33.6513 39.9252C34.2036 39.9303 34.6472 40.3821 34.6421 40.9343C34.6371 41.4866 34.1853 41.9302 33.633 41.9252L33.6422 40.9252L33.6513 39.9252ZM39.9239 41.9826C39.3716 41.9776 38.928 41.5258 38.9331 40.9735C38.9381 40.4213 39.3899 39.9777 39.9422 39.9827L39.933 40.9827L39.9239 41.9826ZM46.233 40.0401C46.7853 40.0452 47.2289 40.497 47.2239 41.0492C47.2188 41.6015 46.767 42.0451 46.2148 42.0401L46.2239 41.0401L46.233 40.0401ZM52.5056 42.0975C51.9534 42.0925 51.5098 41.6407 51.5148 41.0884C51.5198 40.5362 51.9716 40.0926 52.5239 40.0976L52.5148 41.0976L52.5056 42.0975ZM58.8148 40.1551C59.367 40.1601 59.8106 40.6119 59.8056 41.1641C59.8005 41.7164 59.3488 42.16 58.7965 42.155L58.8056 41.155L58.8148 40.1551ZM65.0874 42.2124C64.5351 42.2074 64.0915 41.7556 64.0965 41.2033C64.1016 40.6511 64.5534 40.2075 65.1056 40.2125L65.0965 41.2125L65.0874 42.2124ZM71.7211 39.5826C72.2326 39.3745 72.816 39.6206 73.0241 40.1322C73.2322 40.6437 72.9861 41.2271 72.4745 41.4352L72.0978 40.5089L71.7211 39.5826ZM78.4886 35.4758C78.2759 35.9854 77.6903 36.2262 77.1806 36.0134C76.6709 35.8007 76.4302 35.2151 76.6429 34.7054L77.5658 35.0906L78.4886 35.4758ZM77.3333 28.0031C77.3333 27.4508 77.781 27.0031 78.3333 27.0031C78.8855 27.0031 79.3333 27.4508 79.3333 28.0031H78.3333H77.3333ZM79.3333 21.526C79.3333 22.0783 78.8855 22.526 78.3333 22.526C77.781 22.526 77.3333 22.0783 77.3333 21.526H78.3333H79.3333ZM77.3333 15.0489C77.3333 14.4967 77.781 14.0489 78.3333 14.0489C78.8855 14.0489 79.3333 14.4967 79.3333 15.0489H78.3333H77.3333ZM79.3333 8.57188C79.3333 9.12416 78.8855 9.57188 78.3333 9.57188C77.781 9.57188 77.3333 9.12416 77.3333 8.57188H78.3333H79.3333ZM5.33325 40.6667L5.34238 39.6667L8.48782 39.6954L8.47868 40.6954L8.46955 41.6954L5.32412 41.6666L5.33325 40.6667ZM14.7696 40.7529L14.7787 39.7529L21.0696 39.8103L21.0604 40.8103L21.0513 41.8103L14.7604 41.7528L14.7696 40.7529ZM27.3513 40.8678L27.3604 39.8678L33.6513 39.9252L33.6422 40.9252L33.633 41.9252L27.3422 41.8677L27.3513 40.8678ZM39.933 40.9827L39.9422 39.9827L46.233 40.0401L46.2239 41.0401L46.2148 42.0401L39.9239 41.9826L39.933 40.9827ZM52.5148 41.0976L52.5239 40.0976L58.8148 40.1551L58.8056 41.155L58.7965 42.155L52.5056 42.0975L52.5148 41.0976ZM65.0965 41.2125L65.1056 40.2125L68.2511 40.2412L68.2419 41.2412L68.2328 42.2411L65.0874 42.2124L65.0965 41.2125ZM68.2419 41.2412L68.2511 40.2412C69.4809 40.2525 70.6525 40.0172 71.7211 39.5826L72.0978 40.5089L72.4745 41.4352C71.1653 41.9677 69.7317 42.2548 68.2328 42.2411L68.2419 41.2412ZM77.5658 35.0906L76.6429 34.7054C77.0873 33.6408 77.3333 32.4715 77.3333 31.2416H78.3333H79.3333C79.3333 32.7406 79.033 34.1714 78.4886 35.4758L77.5658 35.0906ZM78.3333 31.2416H77.3333V28.0031H78.3333H79.3333V31.2416H78.3333ZM78.3333 21.526H77.3333V15.0489H78.3333H79.3333V21.526H78.3333ZM78.3333 8.57188H77.3333V5.33334H78.3333H79.3333V8.57188H78.3333Z" fill="#FFF039"/>
</svg>
