<svg width="11" height="104" viewBox="0 0 11 104" fill="none" xmlns="http://www.w3.org/2000/svg">
<path d="M-8.15392e-05 5.33334C-8.16679e-05 8.27886 2.38773 10.6667 5.33325 10.6667C8.27877 10.6667 10.6666 8.27886 10.6666 5.33334C10.6666 2.38783 8.27877 1.01423e-05 5.33325 1.00136e-05C2.38773 9.88483e-06 -8.14104e-05 2.38782 -8.15392e-05 5.33334ZM-8.56043e-05 98.3333C-8.57331e-05 101.279 2.38773 103.667 5.33325 103.667C8.27877 103.667 10.6666 101.279 10.6666 98.3333C10.6666 95.3878 8.27877 93 5.33325 93C2.38773 93 -8.54756e-05 95.3878 -8.56043e-05 98.3333ZM4.33325 8.23959C4.33325 8.79188 4.78097 9.23959 5.33325 9.23959C5.88554 9.23959 6.33325 8.79188 6.33325 8.23959L5.33325 8.23959L4.33325 8.23959ZM6.33325 14.0521C6.33325 13.4998 5.88554 13.0521 5.33325 13.0521C4.78097 13.0521 4.33325 13.4998 4.33325 14.0521L5.33325 14.0521L6.33325 14.0521ZM4.33325 19.8646C4.33325 20.4169 4.78097 20.8646 5.33325 20.8646C5.88554 20.8646 6.33325 20.4169 6.33325 19.8646L5.33325 19.8646L4.33325 19.8646ZM6.33325 25.6771C6.33325 25.1248 5.88554 24.6771 5.33325 24.6771C4.78097 24.6771 4.33325 25.1248 4.33325 25.6771L5.33325 25.6771L6.33325 25.6771ZM4.33325 31.4896C4.33325 32.0419 4.78097 32.4896 5.33325 32.4896C5.88554 32.4896 6.33325 32.0419 6.33325 31.4896L5.33325 31.4896L4.33325 31.4896ZM6.33325 37.3021C6.33325 36.7498 5.88554 36.3021 5.33325 36.3021C4.78097 36.3021 4.33325 36.7498 4.33325 37.3021L5.33325 37.3021L6.33325 37.3021ZM4.33325 43.1146C4.33325 43.6669 4.78097 44.1146 5.33325 44.1146C5.88554 44.1146 6.33325 43.6669 6.33325 43.1146L5.33325 43.1146L4.33325 43.1146ZM6.33325 48.9271C6.33325 48.3748 5.88553 47.9271 5.33325 47.9271C4.78097 47.9271 4.33325 48.3748 4.33325 48.9271L5.33325 48.9271L6.33325 48.9271ZM4.33325 54.7396C4.33325 55.2919 4.78096 55.7396 5.33325 55.7396C5.88553 55.7396 6.33325 55.2919 6.33325 54.7396L5.33325 54.7396L4.33325 54.7396ZM6.33325 60.5521C6.33325 59.9998 5.88553 59.5521 5.33325 59.5521C4.78096 59.5521 4.33325 59.9998 4.33325 60.5521L5.33325 60.5521L6.33325 60.5521ZM4.33325 66.3646C4.33325 66.9169 4.78096 67.3646 5.33325 67.3646C5.88553 67.3646 6.33325 66.9169 6.33325 66.3646L5.33325 66.3646L4.33325 66.3646ZM6.33325 72.1771C6.33325 71.6248 5.88553 71.1771 5.33325 71.1771C4.78096 71.1771 4.33325 71.6248 4.33325 72.1771L5.33325 72.1771L6.33325 72.1771ZM4.33325 77.9896C4.33325 78.5419 4.78096 78.9896 5.33325 78.9896C5.88553 78.9896 6.33325 78.5419 6.33325 77.9896L5.33325 77.9896L4.33325 77.9896ZM6.33325 83.8021C6.33325 83.2498 5.88553 82.8021 5.33325 82.8021C4.78096 82.8021 4.33325 83.2498 4.33325 83.8021L5.33325 83.8021L6.33325 83.8021ZM4.33325 89.6146C4.33325 90.1669 4.78096 90.6146 5.33325 90.6146C5.88553 90.6146 6.33325 90.1669 6.33325 89.6146L5.33325 89.6146L4.33325 89.6146ZM6.33325 95.4271C6.33325 94.8748 5.88553 94.4271 5.33325 94.4271C4.78096 94.4271 4.33325 94.8748 4.33325 95.4271L5.33325 95.4271L6.33325 95.4271ZM5.33325 5.33334L4.33325 5.33334L4.33325 8.23959L5.33325 8.23959L6.33325 8.23959L6.33325 5.33334L5.33325 5.33334ZM5.33325 14.0521L4.33325 14.0521L4.33325 19.8646L5.33325 19.8646L6.33325 19.8646L6.33325 14.0521L5.33325 14.0521ZM5.33325 25.6771L4.33325 25.6771L4.33325 31.4896L5.33325 31.4896L6.33325 31.4896L6.33325 25.6771L5.33325 25.6771ZM5.33325 37.3021L4.33325 37.3021L4.33325 43.1146L5.33325 43.1146L6.33325 43.1146L6.33325 37.3021L5.33325 37.3021ZM5.33325 48.9271L4.33325 48.9271L4.33325 54.7396L5.33325 54.7396L6.33325 54.7396L6.33325 48.9271L5.33325 48.9271ZM5.33325 60.5521L4.33325 60.5521L4.33325 66.3646L5.33325 66.3646L6.33325 66.3646L6.33325 60.5521L5.33325 60.5521ZM5.33325 72.1771L4.33325 72.1771L4.33325 77.9896L5.33325 77.9896L6.33325 77.9896L6.33325 72.1771L5.33325 72.1771ZM5.33325 83.8021L4.33325 83.8021L4.33325 89.6146L5.33325 89.6146L6.33325 89.6146L6.33325 83.8021L5.33325 83.8021ZM5.33325 95.4271L4.33325 95.4271L4.33325 98.3333L5.33325 98.3333L6.33325 98.3333L6.33325 95.4271L5.33325 95.4271Z" fill="#FFF039"/>
</svg>
