<svg width="101" height="82" viewBox="0 0 101 82" fill="none" xmlns="http://www.w3.org/2000/svg">
<path d="M9.05991e-06 5.33334C9.05991e-06 2.38783 2.38782 7.62939e-06 5.33334 7.62939e-06C8.27886 7.62939e-06 10.6667 2.38783 10.6667 5.33334C10.6667 8.27886 8.27886 10.6667 5.33334 10.6667C2.38782 10.6667 9.05991e-06 8.27886 9.05991e-06 5.33334ZM90.2963 76.3333C90.2963 73.3878 92.6841 71 95.6296 71C98.5752 71 100.963 73.3878 100.963 76.3333C100.963 79.2789 98.5752 81.6667 95.6296 81.6667C92.6841 81.6667 90.2963 79.2789 90.2963 76.3333ZM6.26016 8.39534C6.24691 8.94746 5.78858 9.38431 5.23645 9.37106C4.68433 9.35781 4.24748 8.89948 4.26073 8.34736L5.26044 8.37135L6.26016 8.39534ZM4.11493 14.4234C4.12818 13.8712 4.58651 13.4344 5.13863 13.4476C5.69076 13.4609 6.1276 13.9192 6.11436 14.4713L5.11464 14.4474L4.11493 14.4234ZM5.96856 20.5474C5.95531 21.0995 5.49698 21.5363 4.94486 21.5231C4.39273 21.5098 3.95588 21.0515 3.96913 20.4994L4.96885 20.5234L5.96856 20.5474ZM3.82333 26.5754C3.83658 26.0233 4.29491 25.5864 4.84704 25.5997C5.39916 25.6129 5.83601 26.0712 5.82276 26.6234L4.82305 26.5994L3.82333 26.5754ZM5.67696 32.6994C5.66371 33.2515 5.20538 33.6884 4.65326 33.6751C4.10113 33.6619 3.66429 33.2035 3.67754 32.6514L4.67725 32.6754L5.67696 32.6994ZM3.53174 38.7274C3.54498 38.1753 4.00331 37.7384 4.55544 37.7517C5.10756 37.7649 5.54441 38.2233 5.53116 38.7754L4.53145 38.7514L3.53174 38.7274ZM5.38536 44.8514C5.37211 45.4035 4.91379 45.8404 4.36166 45.8271C3.80953 45.8139 3.37269 45.3556 3.38594 44.8034L4.38565 44.8274L5.38536 44.8514ZM3.24014 50.8794C3.25339 50.3273 3.71171 49.8905 4.26384 49.9037C4.81597 49.917 5.25281 50.3753 5.23956 50.9274L4.23985 50.9034L3.24014 50.8794ZM5.09376 57.0034C5.08052 57.5555 4.62219 57.9924 4.07006 57.9791C3.51794 57.9659 3.08109 57.5076 3.09434 56.9554L4.09405 56.9794L5.09376 57.0034ZM2.94854 63.0315C2.96179 62.4793 3.42012 62.0425 3.97224 62.0557C4.52437 62.069 4.96121 62.5273 4.94797 63.0794L3.94825 63.0554L2.94854 63.0315ZM5.49413 69.628C5.69648 70.1419 5.44395 70.7225 4.93007 70.9249C4.41619 71.1272 3.83557 70.8747 3.63321 70.3608L4.56367 69.9944L5.49413 69.628ZM9.60053 76.473C9.09165 76.2584 8.85311 75.6719 9.06774 75.163C9.28237 74.6542 9.86888 74.4156 10.3778 74.6302L9.98914 75.5516L9.60053 76.473ZM16.7924 75.3333C17.3447 75.3333 17.7924 75.7811 17.7924 76.3333C17.7924 76.8856 17.3447 77.3333 16.7924 77.3333V76.3333V75.3333ZM22.6322 77.3333C22.0799 77.3333 21.6322 76.8856 21.6322 76.3333C21.6322 75.7811 22.0799 75.3333 22.6322 75.3333V76.3333V77.3333ZM28.472 75.3333C29.0243 75.3333 29.472 75.7811 29.472 76.3333C29.472 76.8856 29.0243 77.3333 28.472 77.3333V76.3333V75.3333ZM34.3118 77.3333C33.7595 77.3333 33.3118 76.8856 33.3118 76.3333C33.3118 75.7811 33.7595 75.3333 34.3118 75.3333V76.3333V77.3333ZM40.1516 75.3333C40.7038 75.3333 41.1516 75.7811 41.1516 76.3333C41.1516 76.8856 40.7038 77.3333 40.1516 77.3333V76.3333V75.3333ZM45.9914 77.3333C45.4391 77.3333 44.9914 76.8856 44.9914 76.3333C44.9914 75.7811 45.4391 75.3333 45.9914 75.3333V76.3333V77.3333ZM51.8312 75.3333C52.3834 75.3333 52.8312 75.7811 52.8312 76.3333C52.8312 76.8856 52.3834 77.3333 51.8312 77.3333V76.3333V75.3333ZM57.671 77.3333C57.1187 77.3333 56.671 76.8856 56.671 76.3333C56.671 75.7811 57.1187 75.3333 57.671 75.3333V76.3333V77.3333ZM63.5108 75.3333C64.063 75.3333 64.5108 75.7811 64.5108 76.3333C64.5108 76.8856 64.063 77.3333 63.5108 77.3333V76.3333V75.3333ZM69.3506 77.3333C68.7983 77.3333 68.3506 76.8856 68.3506 76.3333C68.3506 75.7811 68.7983 75.3333 69.3506 75.3333V76.3333V77.3333ZM75.1903 75.3333C75.7426 75.3333 76.1903 75.7811 76.1903 76.3333C76.1903 76.8856 75.7426 77.3333 75.1903 77.3333V76.3333V75.3333ZM81.0301 77.3333C80.4779 77.3333 80.0301 76.8856 80.0301 76.3333C80.0301 75.7811 80.4779 75.3333 81.0301 75.3333V76.3333V77.3333ZM86.8699 75.3333C87.4222 75.3333 87.8699 75.7811 87.8699 76.3333C87.8699 76.8856 87.4222 77.3333 86.8699 77.3333V76.3333V75.3333ZM92.7097 77.3333C92.1575 77.3333 91.7097 76.8856 91.7097 76.3333C91.7097 75.7811 92.1575 75.3333 92.7097 75.3333V76.3333V77.3333ZM5.33334 5.33334L6.33305 5.35733L6.26016 8.39534L5.26044 8.37135L4.26073 8.34736L4.33363 5.30936L5.33334 5.33334ZM5.11464 14.4474L6.11436 14.4713L5.96856 20.5474L4.96885 20.5234L3.96913 20.4994L4.11493 14.4234L5.11464 14.4474ZM4.82305 26.5994L5.82276 26.6234L5.67696 32.6994L4.67725 32.6754L3.67754 32.6514L3.82333 26.5754L4.82305 26.5994ZM4.53145 38.7514L5.53116 38.7754L5.38536 44.8514L4.38565 44.8274L3.38594 44.8034L3.53174 38.7274L4.53145 38.7514ZM4.23985 50.9034L5.23956 50.9274L5.09376 57.0034L4.09405 56.9794L3.09434 56.9554L3.24014 50.8794L4.23985 50.9034ZM3.94825 63.0554L4.94797 63.0794L4.87507 66.1174L3.87535 66.0935L2.87564 66.0695L2.94854 63.0315L3.94825 63.0554ZM3.87535 66.0935L4.87507 66.1174C4.84526 67.3595 5.0677 68.5451 5.49413 69.628L4.56367 69.9944L3.63321 70.3608C3.11071 69.0339 2.83932 67.5831 2.87564 66.0695L3.87535 66.0935ZM9.98914 75.5516L10.3778 74.6302C11.4501 75.0825 12.6301 75.3333 13.8725 75.3333V76.3333V77.3333C12.3584 77.3333 10.9145 77.0272 9.60053 76.473L9.98914 75.5516ZM13.8725 76.3333V75.3333H16.7924V76.3333V77.3333H13.8725V76.3333ZM22.6322 76.3333V75.3333H28.472V76.3333V77.3333H22.6322V76.3333ZM34.3118 76.3333V75.3333H40.1516V76.3333V77.3333H34.3118V76.3333ZM45.9914 76.3333V75.3333H51.8312V76.3333V77.3333H45.9914V76.3333ZM57.671 76.3333V75.3333H63.5108V76.3333V77.3333H57.671V76.3333ZM69.3506 76.3333V75.3333H75.1903V76.3333V77.3333H69.3506V76.3333ZM81.0301 76.3333V75.3333H86.8699V76.3333V77.3333H81.0301V76.3333ZM92.7097 76.3333V75.3333H95.6296V76.3333V77.3333H92.7097V76.3333Z" fill="#FFF039"/>
</svg>
