<svg width="44" height="85" viewBox="0 0 44 85" fill="none" xmlns="http://www.w3.org/2000/svg">
<path d="M-8.15392e-05 79.3333C-8.15392e-05 82.2789 2.38773 84.6667 5.33325 84.6667C8.27877 84.6667 10.6666 82.2789 10.6666 79.3333C10.6666 76.3878 8.27877 74 5.33325 74C2.38773 74 -8.15392e-05 76.3878 -8.15392e-05 79.3333ZM32.9999 5.33334C32.9999 8.27886 35.3877 10.6667 38.3333 10.6667C41.2788 10.6667 43.6666 8.27886 43.6666 5.33334C43.6666 2.38782 41.2788 1.00136e-05 38.3333 1.00136e-05C35.3877 1.00136e-05 32.9999 2.38782 32.9999 5.33334ZM6.33325 75.8223C6.33325 75.27 5.88554 74.8223 5.33325 74.8223C4.78097 74.8223 4.33325 75.27 4.33325 75.8223H5.33325H6.33325ZM4.33325 68.8003C4.33325 69.3525 4.78097 69.8003 5.33325 69.8003C5.88554 69.8003 6.33325 69.3525 6.33325 68.8003H5.33325H4.33325ZM6.33325 61.7782C6.33325 61.2259 5.88554 60.7782 5.33325 60.7782C4.78097 60.7782 4.33325 61.2259 4.33325 61.7782H5.33325H6.33325ZM4.33325 54.7561C4.33325 55.3084 4.78097 55.7561 5.33325 55.7561C5.88554 55.7561 6.33325 55.3084 6.33325 54.7561H5.33325H4.33325ZM7.01578 47.8003C7.22734 47.2901 6.98527 46.7051 6.47511 46.4935C5.96495 46.2819 5.37989 46.524 5.16833 47.0342L6.09206 47.4172L7.01578 47.8003ZM11.1223 41.0802C10.6122 41.2917 10.3701 41.8768 10.5816 42.387C10.7932 42.8971 11.3783 43.1392 11.8884 42.9276L11.5054 42.0039L11.1223 41.0802ZM18.5833 42.2451C19.1355 42.2451 19.5833 41.7974 19.5833 41.2451C19.5833 40.6928 19.1355 40.2451 18.5833 40.2451V41.2451V42.2451ZM25.0833 40.2451C24.531 40.2451 24.0833 40.6928 24.0833 41.2451C24.0833 41.7974 24.531 42.2451 25.0833 42.2451V41.2451V40.2451ZM32.5442 41.41C33.0543 41.1985 33.2964 40.6134 33.0849 40.1032C32.8733 39.5931 32.2882 39.351 31.7781 39.5626L32.1611 40.4863L32.5442 41.41ZM36.6507 34.6899C36.4392 35.2001 36.6812 35.7852 37.1914 35.9967C37.7016 36.2083 38.2866 35.9662 38.4982 35.456L37.5744 35.073L36.6507 34.6899ZM39.3333 28.0061C39.3333 27.4538 38.8855 27.0061 38.3333 27.0061C37.781 27.0061 37.3333 27.4538 37.3333 28.0061H38.3333H39.3333ZM37.3333 21.5282C37.3333 22.0805 37.781 22.5282 38.3333 22.5282C38.8855 22.5282 39.3333 22.0805 39.3333 21.5282H38.3333H37.3333ZM39.3333 15.0503C39.3333 14.498 38.8855 14.0503 38.3333 14.0503C37.781 14.0503 37.3333 14.498 37.3333 15.0503H38.3333H39.3333ZM37.3333 8.57231C37.3333 9.1246 37.781 9.57231 38.3333 9.57231C38.8855 9.57231 39.3333 9.1246 39.3333 8.57231H38.3333H37.3333ZM5.33325 79.3333H6.33325V75.8223H5.33325H4.33325V79.3333H5.33325ZM5.33325 68.8003H6.33325V61.7782H5.33325H4.33325V68.8003H5.33325ZM5.33325 54.7561H6.33325V51.2451H5.33325H4.33325V54.7561H5.33325ZM5.33325 51.2451H6.33325C6.33325 50.0229 6.57631 48.8601 7.01578 47.8003L6.09206 47.4172L5.16833 47.0342C4.62992 48.3325 4.33325 49.7554 4.33325 51.2451H5.33325ZM11.5054 42.0039L11.8884 42.9276C12.9482 42.4882 14.1111 42.2451 15.3333 42.2451V41.2451V40.2451C13.8436 40.2451 12.4207 40.5418 11.1223 41.0802L11.5054 42.0039ZM15.3333 41.2451V42.2451H18.5833V41.2451V40.2451H15.3333V41.2451ZM25.0833 41.2451V42.2451H28.3333V41.2451V40.2451H25.0833V41.2451ZM28.3333 41.2451V42.2451C29.8229 42.2451 31.2458 41.9484 32.5442 41.41L32.1611 40.4863L31.7781 39.5626C30.7183 40.002 29.5554 40.2451 28.3333 40.2451V41.2451ZM37.5744 35.073L38.4982 35.456C39.0366 34.1577 39.3333 32.7348 39.3333 31.2451H38.3333H37.3333C37.3333 32.4673 37.0902 33.6301 36.6507 34.6899L37.5744 35.073ZM38.3333 31.2451H39.3333V28.0061H38.3333H37.3333V31.2451H38.3333ZM38.3333 21.5282H39.3333V15.0503H38.3333H37.3333V21.5282H38.3333ZM38.3333 8.57231H39.3333V5.33334H38.3333H37.3333V8.57231H38.3333Z" fill="#FFF039"/>
</svg>
