<svg width="66" height="112" viewBox="0 0 66 112" fill="none" xmlns="http://www.w3.org/2000/svg">
<path d="M60.3333 4.76837e-07C63.2788 4.76837e-07 65.6666 2.38782 65.6666 5.33333C65.6666 8.27885 63.2788 10.6667 60.3333 10.6667C57.3877 10.6667 54.9999 8.27885 54.9999 5.33333C54.9999 2.38782 57.3877 4.76837e-07 60.3333 4.76837e-07ZM5.33325 101.093C8.27877 101.093 10.6666 103.48 10.6666 106.426C10.6666 109.371 8.27877 111.759 5.33325 111.759C2.38773 111.759 -8.15392e-05 109.371 -8.15392e-05 106.426C-8.15392e-05 103.48 2.38773 101.093 5.33325 101.093ZM57.5078 6.23595C56.9558 6.2168 56.5239 5.75384 56.543 5.20189C56.5622 4.64993 57.0251 4.21801 57.5771 4.23715L57.5424 5.23655L57.5078 6.23595ZM51.9954 4.04357C52.5474 4.06272 52.9793 4.52568 52.9601 5.07763C52.941 5.62959 52.478 6.06151 51.9261 6.04237L51.9607 5.04297L51.9954 4.04357ZM46.3444 5.8488C45.7924 5.82966 45.3605 5.36669 45.3797 4.81474C45.3988 4.26279 45.8618 3.83086 46.4137 3.85L46.3791 4.8494L46.3444 5.8488ZM40.832 3.65643C41.384 3.67557 41.8159 4.13853 41.7968 4.69049C41.7776 5.24244 41.3147 5.67437 40.7627 5.65523L40.7974 4.65583L40.832 3.65643ZM35.1811 5.46165C34.6291 5.44251 34.1972 4.97955 34.2163 4.42759C34.2355 3.87564 34.6984 3.44371 35.2504 3.46285L35.2157 4.46225L35.1811 5.46165ZM29.6687 3.26928C30.2206 3.28842 30.6526 3.75139 30.6334 4.30334C30.6143 4.85529 30.1513 5.28722 29.5994 5.26808L29.634 4.26868L29.6687 3.26928ZM24.0177 5.07451C23.4657 5.05536 23.0338 4.5924 23.053 4.04045C23.0721 3.4885 23.5351 3.05657 24.087 3.07571L24.0524 4.07511L24.0177 5.07451ZM18.5053 2.88214C19.0573 2.90128 19.4892 3.36424 19.4701 3.91619C19.4509 4.46815 18.988 4.90008 18.436 4.88093L18.4707 3.88153L18.5053 2.88214ZM12.1057 5.37417C11.5903 5.57241 11.0117 5.31524 10.8134 4.79976C10.6152 4.28428 10.8723 3.7057 11.3878 3.50745L11.7468 4.44081L12.1057 5.37417ZM5.20489 9.47969C5.42088 8.97139 6.00803 8.73443 6.51633 8.95042C7.02462 9.16641 7.26158 9.75356 7.04559 10.2619L6.12524 9.87077L5.20489 9.47969ZM6.33325 16.674C6.33325 17.2262 5.88554 17.674 5.33325 17.674C4.78097 17.674 4.33325 17.2262 4.33325 16.674H5.33325H6.33325ZM4.33325 22.4644C4.33325 21.9121 4.78097 21.4644 5.33325 21.4644C5.88554 21.4644 6.33325 21.9121 6.33325 22.4644H5.33325H4.33325ZM6.33325 28.2549C6.33325 28.8071 5.88554 29.2549 5.33325 29.2549C4.78097 29.2549 4.33325 28.8071 4.33325 28.2549H5.33325H6.33325ZM4.33325 34.0453C4.33325 33.493 4.78097 33.0453 5.33325 33.0453C5.88554 33.0453 6.33325 33.493 6.33325 34.0453H5.33325H4.33325ZM6.33325 39.8358C6.33325 40.388 5.88554 40.8358 5.33325 40.8358C4.78097 40.8358 4.33325 40.388 4.33325 39.8358H5.33325H6.33325ZM4.33325 45.6262C4.33325 45.0739 4.78097 44.6262 5.33325 44.6262C5.88554 44.6262 6.33325 45.0739 6.33325 45.6262H5.33325H4.33325ZM6.33325 51.4167C6.33325 51.9689 5.88554 52.4167 5.33325 52.4167C4.78097 52.4167 4.33325 51.9689 4.33325 51.4167H5.33325H6.33325ZM4.33325 57.2071C4.33325 56.6548 4.78097 56.2071 5.33325 56.2071C5.88554 56.2071 6.33325 56.6548 6.33325 57.2071H5.33325H4.33325ZM6.33325 62.9976C6.33325 63.5498 5.88554 63.9976 5.33325 63.9976C4.78097 63.9976 4.33325 63.5498 4.33325 62.9976H5.33325H6.33325ZM4.33325 68.788C4.33325 68.2357 4.78097 67.788 5.33325 67.788C5.88554 67.788 6.33325 68.2357 6.33325 68.788H5.33325H4.33325ZM6.33325 74.5785C6.33325 75.1307 5.88554 75.5785 5.33325 75.5785C4.78097 75.5785 4.33325 75.1307 4.33325 74.5785H5.33325H6.33325ZM4.33325 80.3689C4.33325 79.8166 4.78097 79.3689 5.33325 79.3689C5.88554 79.3689 6.33325 79.8166 6.33325 80.3689H5.33325H4.33325ZM6.33325 86.1594C6.33325 86.7117 5.88554 87.1594 5.33325 87.1594C4.78097 87.1594 4.33325 86.7117 4.33325 86.1594H5.33325H6.33325ZM4.33325 91.9498C4.33325 91.3975 4.78097 90.9498 5.33325 90.9498C5.88554 90.9498 6.33325 91.3975 6.33325 91.9498H5.33325H4.33325ZM6.33325 97.7403C6.33325 98.2925 5.88554 98.7403 5.33325 98.7403C4.78097 98.7403 4.33325 98.2925 4.33325 97.7403H5.33325H6.33325ZM4.33325 103.531C4.33325 102.978 4.78097 102.531 5.33325 102.531C5.88554 102.531 6.33325 102.978 6.33325 103.531H5.33325H4.33325ZM60.3333 5.33333L60.2986 6.33273L57.5078 6.23595L57.5424 5.23655L57.5771 4.23715L60.3679 4.33393L60.3333 5.33333ZM51.9607 5.04297L51.9261 6.04237L46.3444 5.8488L46.3791 4.8494L46.4137 3.85L51.9954 4.04357L51.9607 5.04297ZM40.7974 4.65583L40.7627 5.65523L35.1811 5.46165L35.2157 4.46225L35.2504 3.46285L40.832 3.65643L40.7974 4.65583ZM29.634 4.26868L29.5994 5.26808L24.0177 5.07451L24.0524 4.07511L24.087 3.07571L29.6687 3.26928L29.634 4.26868ZM18.4707 3.88153L18.436 4.88093L15.6452 4.78415L15.6798 3.78475L15.7145 2.78535L18.5053 2.88214L18.4707 3.88153ZM15.6798 3.78475L15.6452 4.78415C14.3945 4.74077 13.1989 4.95377 12.1057 5.37417L11.7468 4.44081L11.3878 3.50745C12.7273 2.9923 14.1904 2.73249 15.7145 2.78535L15.6798 3.78475ZM6.12524 9.87077L7.04559 10.2619C6.58757 11.3398 6.33325 12.5273 6.33325 13.7787H5.33325H4.33325C4.33325 12.2538 4.64362 10.8005 5.20489 9.47969L6.12524 9.87077ZM5.33325 13.7787H6.33325V16.674H5.33325H4.33325V13.7787H5.33325ZM5.33325 22.4644H6.33325V28.2549H5.33325H4.33325V22.4644H5.33325ZM5.33325 34.0453H6.33325V39.8358H5.33325H4.33325V34.0453H5.33325ZM5.33325 45.6262H6.33325V51.4167H5.33325H4.33325V45.6262H5.33325ZM5.33325 57.2071H6.33325V62.9976H5.33325H4.33325V57.2071H5.33325ZM5.33325 68.788H6.33325V74.5785H5.33325H4.33325V68.788H5.33325ZM5.33325 80.3689H6.33325V86.1594H5.33325H4.33325V80.3689H5.33325ZM5.33325 91.9498H6.33325V97.7403H5.33325H4.33325V91.9498H5.33325ZM5.33325 103.531H6.33325V106.426H5.33325H4.33325V103.531H5.33325Z" fill="#FFF039"/>
</svg>
