<svg width="30" height="30" viewBox="0 0 30 30" fill="none" xmlns="http://www.w3.org/2000/svg">
<g clip-path="url(#clip0_194_47)">
<path d="M29.9979 15.3587C29.9979 14.3478 29.8979 13.3043 29.7312 12.326H15.2979V18.0978H23.5645C23.2312 19.9565 22.1312 21.5869 20.4979 22.6304L25.4312 26.3804C28.3312 23.7391 29.9979 19.8913 29.9979 15.3587Z" fill="#4280EF"/>
<path d="M15.2975 29.9673C19.4309 29.9673 22.8975 28.6304 25.4309 26.3478L20.4975 22.6304C19.1309 23.5434 17.3642 24.0651 15.2975 24.0651C11.2975 24.0651 7.93086 21.4238 6.69753 17.9021L1.63086 21.7173C4.23086 26.7717 9.49753 29.9673 15.2975 29.9673Z" fill="#34A353"/>
<path d="M6.69655 17.8694C6.06322 16.0107 6.06322 13.989 6.69655 12.1303L1.62988 8.28247C-0.536784 12.5216 -0.536784 17.5107 1.62988 21.7173L6.69655 17.8694Z" fill="#F6B704"/>
<path d="M15.2975 5.96734C17.4642 5.93473 19.5975 6.74995 21.1642 8.21734L25.5309 3.91299C22.7642 1.36951 19.0975 -5.71534e-05 15.2975 0.0325515C9.49753 0.0325515 4.23086 3.2282 1.63086 8.28256L6.69753 12.1304C7.93086 8.57603 11.2975 5.96734 15.2975 5.96734Z" fill="#E54335"/>
</g>
<defs>
<clipPath id="clip0_194_47">
<rect width="30" height="30" fill="white"/>
</clipPath>
</defs>
</svg>
