<svg width="26" height="26" viewBox="0 0 26 26" fill="none" xmlns="http://www.w3.org/2000/svg">
<mask id="mask0_69_55" style="mask-type:luminance" maskUnits="userSpaceOnUse" x="0" y="0" width="26" height="26">
<path d="M13 25C14.5761 25.0019 16.1371 24.6924 17.5933 24.0892C19.0495 23.4861 20.3721 22.6011 21.4852 21.4852C22.6011 20.3721 23.4861 19.0495 24.0892 17.5933C24.6924 16.1371 25.0019 14.5761 25 13C25.0019 11.4239 24.6924 9.86286 24.0892 8.4067C23.4861 6.95054 22.6011 5.62791 21.4852 4.51481C20.3721 3.3989 19.0495 2.51394 17.5933 1.91076C16.1371 1.30758 14.5761 0.998066 13 1.00001C11.4239 0.998066 9.86286 1.30758 8.4067 1.91076C6.95054 2.51394 5.62791 3.3989 4.51481 4.51481C3.3989 5.62791 2.51394 6.95054 1.91076 8.4067C1.30758 9.86286 0.998066 11.4239 1.00001 13C0.998066 14.5761 1.30758 16.1371 1.91076 17.5933C2.51394 19.0495 3.3989 20.3721 4.51481 21.4852C5.62791 22.6011 6.95054 23.4861 8.4067 24.0892C9.86286 24.6924 11.4239 25.0019 13 25Z" fill="white" stroke="white" stroke-width="2" stroke-linejoin="round"/>
<path d="M8.19946 13.0001L11.7995 16.6001L18.9995 9.40015" stroke="black" stroke-width="2" stroke-linecap="round" stroke-linejoin="round"/>
</mask>
<g mask="url(#mask0_69_55)">
<path d="M-1.39996 -1.40015H27.4V27.3998H-1.39996V-1.40015Z" fill="#00F124"/>
</g>
<path d="M8.30402 13.2435L11.6242 16.6522L18.7388 9.3479" stroke="white" stroke-width="2.2" stroke-linecap="round" stroke-linejoin="round"/>
</svg>
