<svg width="18" height="18" viewBox="0 0 18 18" fill="none" xmlns="http://www.w3.org/2000/svg">
<path d="M12.9062 11.8966L11.5083 12.0999C9.33901 12.4124 7.63563 14.0914 7.31863 16.2297L7.11239 17.6076C7.036 18.1309 6.26834 18.1309 6.19195 17.6076L5.98571 16.2297C5.66871 14.0914 3.96533 12.4124 1.796 12.0999L0.398157 11.8966C-0.132719 11.8213 -0.132719 11.0646 0.398157 10.9893L1.796 10.786C3.96533 10.4735 5.66871 8.79449 5.98571 6.65615L6.19195 5.27827C6.26834 4.75498 7.036 4.75498 7.11239 5.27827L7.31863 6.65615C7.63563 8.79449 9.33901 10.4735 11.5083 10.786L12.9062 10.9893C13.4371 11.0646 13.4371 11.8213 12.9062 11.8966Z" fill="url(#paint0_linear_84_327)"/>
<path d="M17.8201 3.16173L17.1897 3.25341C16.2113 3.39433 15.4432 4.15154 15.3002 5.11589L15.2072 5.73729C15.1727 5.97328 14.8265 5.97328 14.7921 5.73729L14.6991 5.11589C14.5561 4.15154 13.7879 3.39433 12.8096 3.25341L12.1792 3.16173C11.9398 3.12777 11.9398 2.78651 12.1792 2.75256L12.8096 2.66088C13.7879 2.51996 14.5561 1.76274 14.6991 0.798391L14.7921 0.176996C14.8265 -0.0589985 15.1727 -0.0589985 15.2072 0.176996L15.3002 0.798391C15.4432 1.76274 16.2113 2.51996 17.1897 2.66088L17.8201 2.75256C18.0595 2.78651 18.0595 3.12777 17.8201 3.16173Z" fill="url(#paint1_linear_84_327)"/>
<defs>
<linearGradient id="paint0_linear_84_327" x1="-2.57421" y1="18.0001" x2="6.74528" y2="2.74283" gradientUnits="userSpaceOnUse">
<stop stop-color="#25D5FD"/>
<stop offset="1" stop-color="#4D5EF6"/>
</linearGradient>
<linearGradient id="paint1_linear_84_327" x1="10.8387" y1="5.91428" x2="15.0416" y2="-0.966441" gradientUnits="userSpaceOnUse">
<stop stop-color="#25D5FD"/>
<stop offset="1" stop-color="#4D5EF6"/>
</linearGradient>
</defs>
</svg>
