<svg width="34" height="48" viewBox="0 0 34 48" fill="none" xmlns="http://www.w3.org/2000/svg">
<path d="M21.123 44.0596C22.1969 44.0596 23.0683 44.9428 23.0683 46.0303C23.068 47.1176 22.1967 48 21.123 48H12.871C11.7973 48 10.925 47.1176 10.9247 46.0303C10.9247 44.9428 11.7971 44.0596 12.871 44.0596H21.123ZM30.1894 28.4482C30.4969 27.4083 31.5823 26.8178 32.6132 27.1289C33.6403 27.4401 34.2279 28.539 33.9169 29.583C31.6913 37.0891 24.7341 42.3301 16.9989 42.3301C9.26393 42.3299 2.30753 37.089 0.081955 29.583C-0.22521 28.543 0.357805 27.4442 1.38469 27.1289C2.41181 26.8177 3.49812 27.4082 3.80949 28.4482C5.54481 34.2993 10.9682 38.3895 16.9989 38.3896C23.0299 38.3896 28.454 34.3034 30.1894 28.4482ZM16.9989 0C23.5318 0 28.8231 5.36297 28.8232 11.9746V24.666C28.8232 31.2816 23.5279 36.6406 16.9989 36.6406C10.4662 36.6405 5.17473 31.2776 5.17473 24.666V11.9746C5.17475 5.35907 10.4701 7.53127e-05 16.9989 0ZM17.4697 11.8643C17.3918 11.3167 16.61 11.3167 16.5322 11.8643L16.3222 13.3066C15.9992 15.5446 14.2636 17.3019 12.0536 17.6289L10.6298 17.8418C10.089 17.9206 10.089 18.7122 10.6298 18.791L12.0536 19.0039C14.2636 19.3309 15.9992 21.0882 16.3222 23.3262L16.5322 24.7686C16.61 25.3162 17.3918 25.3161 17.4697 24.7686L17.6796 23.3262C18.0026 21.0883 19.7382 19.331 21.9482 19.0039L23.372 18.791C23.9128 18.7122 23.9128 17.9206 23.372 17.8418L21.9482 17.6289C19.7382 17.3018 18.0026 15.5446 17.6796 13.3066L17.4697 11.8643ZM23.2128 7.81738C23.1736 7.54992 22.793 7.54993 22.7538 7.81738L22.6523 8.52344C22.4926 9.61851 21.6448 10.4731 20.5673 10.6348L19.871 10.7373C19.6064 10.7767 19.6064 11.1627 19.871 11.2021L20.5673 11.3047C21.6489 11.4663 22.4928 12.3256 22.6523 13.417L22.7538 14.1221C22.7928 14.39 23.1739 14.39 23.2128 14.1221L23.3144 13.417C23.4739 12.3217 24.3217 11.4663 25.3993 11.3047L26.0956 11.2021C26.3602 11.1627 26.3602 10.7767 26.0956 10.7373L25.3993 10.6348C24.3179 10.4731 23.4741 9.61458 23.3144 8.52344L23.2128 7.81738Z" fill="#4D5EF6"/>
</svg>
